<svg width="377" height="377" viewBox="0 0 377 377" fill="none" xmlns="http://www.w3.org/2000/svg">
<circle cx="188.5" cy="188.5" r="185" fill="white" stroke="#26C4C4" stroke-width="7"/>
<path d="M167.938 230.85C167.629 250.144 152.571 297 137.044 297C121.518 297 106.459 247.694 107.077 230.85C107.695 214.006 103.988 199 137.044 199C170.101 199 168.247 211.556 167.938 230.85Z" fill="#95E3E3"/>
<ellipse cx="174.656" cy="213.11" rx="9.48788" ry="12.2424" transform="rotate(-12.8781 174.656 213.11)" fill="#95E3E3"/>
<ellipse cx="101.062" cy="210.726" rx="9.48788" ry="12.2424" transform="rotate(19.7155 101.062 210.726)" fill="#95E3E3"/>
<ellipse cx="178.031" cy="240.401" rx="6.12121" ry="17.1394" transform="rotate(-13.0869 178.031 240.401)" fill="#6DDDDD"/>
<ellipse cx="100.904" cy="232.444" rx="6.12121" ry="17.1394" transform="rotate(-13.0869 100.904 232.444)" fill="#6DDDDD"/>
<ellipse cx="191.143" cy="241.568" rx="5.50909" ry="16.5273" transform="rotate(33.8078 191.143 241.568)" fill="#26C4C4"/>
<rect x="107.588" y="220.239" width="34.2788" height="48.9697" transform="rotate(-13.0008 107.588 220.239)" fill="#C32E2E"/>
<ellipse cx="120.531" cy="247.69" rx="5.50909" ry="16.5273" transform="rotate(89.0544 120.531 247.69)" fill="#26C4C4"/>
<path d="M275.919 196.293C273.449 187.902 261.551 187.902 259.081 196.293L258.64 197.789C258.468 198.375 258.166 198.914 257.758 199.368C257.35 199.822 256.845 200.179 256.281 200.413C255.717 200.647 255.107 200.752 254.498 200.719C253.888 200.687 253.293 200.518 252.757 200.226L251.388 199.476C243.7 195.295 235.295 203.705 239.481 211.388L240.226 212.757C240.518 213.293 240.687 213.888 240.719 214.498C240.752 215.107 240.647 215.717 240.413 216.281C240.179 216.845 239.822 217.35 239.368 217.758C238.914 218.166 238.375 218.468 237.789 218.64L236.293 219.081C227.902 221.551 227.902 233.449 236.293 235.919L237.789 236.36C238.375 236.532 238.914 236.834 239.368 237.242C239.822 237.65 240.179 238.155 240.413 238.719C240.647 239.283 240.752 239.893 240.719 240.502C240.687 241.112 240.518 241.707 240.226 242.243L239.476 243.612C235.295 251.3 243.7 259.71 251.388 255.519L252.757 254.774C253.293 254.482 253.888 254.313 254.498 254.281C255.107 254.248 255.717 254.353 256.281 254.587C256.845 254.821 257.35 255.178 257.758 255.632C258.166 256.086 258.468 256.625 258.64 257.211L259.081 258.707C261.551 267.098 273.449 267.098 275.919 258.707L276.36 257.211C276.532 256.625 276.834 256.086 277.242 255.632C277.65 255.178 278.155 254.821 278.719 254.587C279.283 254.353 279.893 254.248 280.502 254.281C281.112 254.313 281.707 254.482 282.243 254.774L283.612 255.524C291.3 259.71 299.71 251.295 295.519 243.612L294.774 242.243C294.482 241.707 294.313 241.112 294.281 240.502C294.248 239.893 294.353 239.283 294.587 238.719C294.821 238.155 295.178 237.65 295.632 237.242C296.086 236.834 296.625 236.532 297.211 236.36L298.707 235.919C307.098 233.449 307.098 221.551 298.707 219.081L297.211 218.64C296.625 218.468 296.086 218.166 295.632 217.758C295.178 217.35 294.821 216.845 294.587 216.281C294.353 215.717 294.248 215.107 294.281 214.498C294.313 213.888 294.482 213.293 294.774 212.757L295.524 211.388C299.71 203.7 291.295 195.295 283.612 199.481L282.243 200.226C281.707 200.518 281.112 200.687 280.502 200.719C279.893 200.752 279.283 200.647 278.719 200.413C278.155 200.179 277.65 199.822 277.242 199.368C276.834 198.914 276.532 198.375 276.36 197.789L275.919 196.293ZM263.576 197.62C264.73 193.706 270.27 193.706 271.424 197.62L271.864 199.115C272.235 200.372 272.882 201.53 273.758 202.504C274.634 203.478 275.717 204.244 276.928 204.745C278.138 205.247 279.445 205.471 280.754 205.401C282.062 205.331 283.338 204.969 284.489 204.342L285.853 203.592C289.434 201.647 293.353 205.561 291.403 209.147L290.658 210.516C290.032 211.667 289.671 212.943 289.602 214.251C289.533 215.559 289.757 216.866 290.259 218.076C290.761 219.286 291.527 220.368 292.501 221.244C293.475 222.119 294.633 222.766 295.889 223.136L297.38 223.576C301.294 224.73 301.294 230.27 297.38 231.424L295.885 231.864C294.628 232.235 293.47 232.882 292.496 233.758C291.522 234.634 290.756 235.717 290.255 236.928C289.753 238.138 289.53 239.445 289.599 240.754C289.669 242.062 290.031 243.338 290.658 244.489L291.408 245.853C293.353 249.434 289.439 253.353 285.853 251.403L284.489 250.658C283.338 250.031 282.061 249.669 280.753 249.6C279.444 249.53 278.137 249.755 276.926 250.256C275.716 250.758 274.633 251.524 273.757 252.499C272.881 253.474 272.234 254.632 271.864 255.889L271.424 257.38C270.27 261.294 264.73 261.294 263.576 257.38L263.136 255.885C262.765 254.629 262.118 253.471 261.242 252.498C260.367 251.524 259.284 250.758 258.074 250.257C256.864 249.756 255.558 249.532 254.25 249.601C252.942 249.671 251.666 250.032 250.516 250.658L249.147 251.408C245.566 253.353 241.647 249.439 243.597 245.853L244.342 244.489C244.97 243.338 245.333 242.061 245.403 240.753C245.473 239.444 245.249 238.136 244.748 236.925C244.247 235.713 243.481 234.63 242.506 233.753C241.531 232.877 240.373 232.23 239.115 231.86L237.62 231.419C233.706 230.266 233.706 224.725 237.62 223.572L239.115 223.131C240.371 222.76 241.527 222.113 242.501 221.238C243.474 220.363 244.239 219.281 244.74 218.071C245.241 216.862 245.465 215.556 245.397 214.249C245.328 212.941 244.968 211.666 244.342 210.516L243.592 209.147C241.647 205.566 245.561 201.647 249.147 203.597L250.516 204.342C251.666 204.968 252.942 205.329 254.25 205.399C255.558 205.468 256.864 205.244 258.074 204.743C259.284 204.242 260.367 203.476 261.242 202.502C262.118 201.529 262.765 200.371 263.136 199.115L263.576 197.62Z" fill="#FFDE70"/>
<path d="M267.5 212.283C265.502 212.283 263.523 212.677 261.677 213.442C259.831 214.206 258.153 215.327 256.74 216.74C255.327 218.153 254.206 219.831 253.442 221.677C252.677 223.523 252.283 225.502 252.283 227.5C252.283 229.498 252.677 231.477 253.442 233.323C254.206 235.169 255.327 236.847 256.74 238.26C258.153 239.673 259.831 240.794 261.677 241.558C263.523 242.323 265.502 242.717 267.5 242.717C271.536 242.717 275.406 241.113 278.26 238.26C281.113 235.406 282.717 231.536 282.717 227.5C282.717 223.464 281.113 219.594 278.26 216.74C275.406 213.887 271.536 212.283 267.5 212.283ZM256.971 227.5C256.971 224.708 258.081 222.03 260.055 220.055C262.03 218.08 264.708 216.971 267.5 216.971C270.292 216.971 272.97 218.08 274.945 220.055C276.92 222.03 278.029 224.708 278.029 227.5C278.029 230.292 276.92 232.97 274.945 234.945C272.97 236.919 270.292 238.029 267.5 238.029C264.708 238.029 262.03 236.919 260.055 234.945C258.081 232.97 256.971 230.292 256.971 227.5Z" fill="#FFDE70"/>
<path d="M253.735 135.035C251.759 128.322 242.241 128.322 240.265 135.035L239.912 136.231C239.774 136.7 239.533 137.131 239.206 137.495C238.88 137.858 238.476 138.144 238.025 138.331C237.573 138.518 237.086 138.601 236.598 138.575C236.11 138.549 235.635 138.415 235.206 138.181L234.11 137.581C227.96 134.236 221.236 140.964 224.585 147.11L225.181 148.206C225.415 148.635 225.549 149.11 225.575 149.598C225.601 150.086 225.518 150.573 225.331 151.025C225.144 151.476 224.858 151.88 224.495 152.206C224.131 152.533 223.7 152.774 223.231 152.912L222.035 153.265C215.322 155.241 215.322 164.759 222.035 166.735L223.231 167.088C223.7 167.226 224.131 167.467 224.495 167.794C224.858 168.12 225.144 168.524 225.331 168.975C225.518 169.427 225.601 169.914 225.575 170.402C225.549 170.89 225.415 171.365 225.181 171.794L224.581 172.89C221.236 179.04 227.96 185.768 234.11 182.415L235.206 181.819C235.635 181.585 236.11 181.451 236.598 181.425C237.086 181.399 237.573 181.482 238.025 181.669C238.476 181.856 238.88 182.142 239.206 182.505C239.533 182.869 239.774 183.3 239.912 183.769L240.265 184.965C242.241 191.678 251.759 191.678 253.735 184.965L254.088 183.769C254.226 183.3 254.467 182.869 254.794 182.505C255.12 182.142 255.524 181.856 255.975 181.669C256.427 181.482 256.914 181.399 257.402 181.425C257.89 181.451 258.365 181.585 258.794 181.819L259.89 182.419C266.04 185.768 272.768 179.036 269.415 172.89L268.819 171.794C268.585 171.365 268.451 170.89 268.425 170.402C268.399 169.914 268.482 169.427 268.669 168.975C268.856 168.524 269.142 168.12 269.505 167.794C269.869 167.467 270.3 167.226 270.769 167.088L271.965 166.735C278.678 164.759 278.678 155.241 271.965 153.265L270.769 152.912C270.3 152.774 269.869 152.533 269.505 152.206C269.142 151.88 268.856 151.476 268.669 151.025C268.482 150.573 268.399 150.086 268.425 149.598C268.451 149.11 268.585 148.635 268.819 148.206L269.419 147.11C272.768 140.96 266.036 134.236 259.89 137.585L258.794 138.181C258.365 138.415 257.89 138.549 257.402 138.575C256.914 138.601 256.427 138.518 255.975 138.331C255.524 138.144 255.12 137.858 254.794 137.495C254.467 137.131 254.226 136.7 254.088 136.231L253.735 135.035ZM243.861 136.096C244.784 132.965 249.216 132.965 250.139 136.096L250.491 137.292C250.788 138.298 251.305 139.224 252.006 140.003C252.707 140.783 253.574 141.395 254.542 141.796C255.51 142.197 256.556 142.376 257.603 142.321C258.65 142.265 259.671 141.975 260.591 141.474L261.682 140.874C264.547 139.317 267.683 142.449 266.122 145.318L265.526 146.413C265.025 147.333 264.737 148.354 264.681 149.401C264.626 150.447 264.806 151.492 265.207 152.46C265.608 153.428 266.221 154.294 267.001 154.995C267.78 155.695 268.706 156.212 269.711 156.509L270.904 156.861C274.035 157.784 274.035 162.216 270.904 163.139L269.708 163.491C268.702 163.788 267.776 164.305 266.997 165.006C266.217 165.707 265.605 166.574 265.204 167.542C264.803 168.51 264.624 169.556 264.679 170.603C264.735 171.65 265.025 172.671 265.526 173.591L266.126 174.682C267.683 177.547 264.551 180.683 261.682 179.122L260.591 178.526C259.67 178.025 258.649 177.735 257.602 177.68C256.555 177.624 255.509 177.804 254.541 178.205C253.572 178.606 252.706 179.219 252.005 179.999C251.305 180.779 250.787 181.706 250.491 182.711L250.139 183.904C249.216 187.035 244.784 187.035 243.861 183.904L243.509 182.708C243.212 181.703 242.695 180.777 241.994 179.998C241.293 179.219 240.427 178.607 239.459 178.206C238.491 177.805 237.446 177.626 236.4 177.681C235.354 177.736 234.333 178.025 233.413 178.526L232.318 179.126C229.453 180.683 226.317 177.551 227.878 174.682L228.474 173.591C228.976 172.67 229.266 171.649 229.322 170.602C229.378 169.555 229.199 168.509 228.798 167.54C228.397 166.571 227.785 165.704 227.005 165.003C226.225 164.302 225.298 163.784 224.292 163.488L223.096 163.135C219.965 162.213 219.965 157.78 223.096 156.857L224.292 156.505C225.297 156.208 226.222 155.691 227.001 154.99C227.779 154.29 228.391 153.424 228.792 152.457C229.193 151.49 229.372 150.445 229.317 149.399C229.262 148.353 228.974 147.333 228.474 146.413L227.874 145.318C226.317 142.453 229.449 139.317 232.318 140.878L233.413 141.474C234.333 141.975 235.354 142.264 236.4 142.319C237.446 142.374 238.491 142.195 239.459 141.794C240.427 141.393 241.293 140.781 241.994 140.002C242.695 139.223 243.212 138.297 243.509 137.292L243.861 136.096Z" fill="#C32E2E"/>
<path d="M247 147.827C245.401 147.827 243.818 148.142 242.342 148.753C240.865 149.365 239.523 150.262 238.392 151.392C237.262 152.523 236.365 153.865 235.753 155.341C235.142 156.818 234.827 158.401 234.827 160C234.827 161.599 235.142 163.182 235.753 164.658C236.365 166.135 237.262 167.477 238.392 168.608C239.523 169.738 240.865 170.635 242.342 171.247C243.818 171.858 245.401 172.173 247 172.173C250.229 172.173 253.325 170.891 255.608 168.608C257.891 166.325 259.173 163.229 259.173 160C259.173 156.771 257.891 153.675 255.608 151.392C253.325 149.109 250.229 147.827 247 147.827ZM238.577 160C238.577 157.766 239.464 155.624 241.044 154.044C242.624 152.464 244.766 151.577 247 151.577C249.234 151.577 251.376 152.464 252.956 154.044C254.536 155.624 255.423 157.766 255.423 160C255.423 162.234 254.536 164.376 252.956 165.956C251.376 167.536 249.234 168.423 247 168.423C244.766 168.423 242.624 167.536 241.044 165.956C239.464 164.376 238.577 162.234 238.577 160Z" fill="#C32E2E"/>
<rect x="84" y="108" width="109" height="89" rx="26" fill="#6DDDDD"/>
<rect x="98" y="120" width="80" height="65" rx="26" fill="#95E3E3"/>
<ellipse cx="113" cy="173" rx="10" ry="17" fill="#26C4C4"/>
<ellipse cx="166" cy="173" rx="10" ry="17" fill="#26C4C4"/>
<path d="M80 151.5C80 124.714 81 86 137.5 85.5C194 85 197 124.714 197 151.5H80Z" fill="#FFEAA3"/>
<rect x="72" y="144" width="133" height="8" fill="#FFDE70"/>
<rect x="135" y="80" width="9" height="64" fill="#FFDE70"/>
<rect x="171" y="89" width="9" height="55" fill="#FFDE70"/>
<rect x="99" y="89" width="9" height="55" fill="#FFDE70"/>
</svg>
